<?xml version="1.0" standalone="no"?>
<!DOCTYPE svg PUBLIC "-//W3C//DTD SVG 20010904//EN"
 "http://www.w3.org/TR/2001/REC-SVG-20010904/DTD/svg10.dtd">
<svg version="1.0" xmlns="http://www.w3.org/2000/svg"
 width="1489.000000pt" height="717.000000pt" viewBox="0 0 1489.000000 717.000000"
 preserveAspectRatio="xMidYMid meet">

<g transform="translate(0.000000,717.000000) scale(0.100000,-0.100000)"
fill="#000000" stroke="none">
<path d="M1150 6625 l0 -305 305 0 305 0 0 305 0 305 -305 0 -305 0 0 -305z"/>
<path d="M380 5705 l0 -275 260 0 260 0 0 275 0 275 -260 0 -260 0 0 -275z"/>
<path d="M1190 5555 l0 -335 335 0 335 0 0 335 0 335 -335 0 -335 0 0 -335z"/>
<path d="M2530 5276 l0 -165 653 -4 c516 -2 660 -6 689 -16 56 -21 143 -95
174 -147 15 -26 36 -72 46 -102 17 -52 18 -134 18 -1601 0 -1057 -3 -1559 -11
-1586 -28 -108 -104 -205 -200 -257 l-44 -23 -1160 0 -1160 0 -56 28 c-69 33
-132 99 -167 175 l-27 57 -3 978 -2 977 -171 0 -170 0 4 -1387 c2 -1303 4
-1392 21 -1448 17 -57 31 -90 87 -195 36 -66 163 -191 245 -238 39 -23 107
-52 150 -64 l79 -23 1165 0 c1160 0 1165 0 1245 21 199 54 378 218 456 417 63
164 60 34 57 2202 l-3 1970 -33 95 c-81 235 -230 389 -457 475 -47 18 -90 20
-737 23 l-688 3 0 -165z m215 -4247 c101 -18 195 -79 230 -149 23 -44 31 -161
15 -219 -17 -64 -97 -140 -176 -166 -130 -44 -263 -17 -350 70 -64 63 -84 109
-84 187 0 70 37 155 83 194 44 37 124 75 176 84 25 4 46 8 47 9 0 0 27 -4 59
-10z m-685 -274 l0 -75 -290 0 -290 0 0 68 c0 38 3 72 7 75 3 4 134 7 290 7
l283 0 0 -75z m1840 0 l0 -75 -290 0 -290 0 0 68 c0 38 3 72 7 75 3 4 134 7
290 7 l283 0 0 -75z"/>
<path d="M1460 4600 l0 -430 430 0 430 0 0 430 0 430 -430 0 -430 0 0 -430z"/>
<path d="M170 4460 l0 -470 470 0 470 0 0 470 0 470 -470 0 -470 0 0 -470z"/>
<path d="M6980 3670 c-139 -19 -222 -90 -255 -217 -8 -31 -15 -74 -15 -95 l0
-38 -65 0 -65 0 0 -95 0 -95 65 0 65 0 0 -330 0 -330 120 0 120 0 0 330 0 330
110 0 110 0 0 95 0 95 -110 0 -110 0 0 40 c0 48 22 95 52 111 28 15 109 15
137 -1 13 -6 24 -10 26 -8 2 2 17 40 34 86 l30 82 -27 14 c-26 13 -69 23 -137
30 -16 2 -55 0 -85 -4z"/>
<path d="M5793 3609 c-145 -14 -267 -71 -369 -173 -112 -112 -164 -240 -164
-401 0 -162 52 -289 165 -402 119 -119 258 -173 445 -174 256 -1 462 119 560
326 38 82 52 149 52 250 0 101 -14 168 -52 250 -107 227 -351 352 -637 324z
m234 -244 c75 -33 134 -93 171 -173 24 -50 27 -70 27 -157 0 -87 -4 -107 -26
-155 -68 -145 -193 -218 -355 -208 -131 9 -240 81 -293 192 -60 130 -46 288
38 403 91 125 284 168 438 98z"/>
<path d="M10750 3035 l0 -565 125 0 125 0 0 205 0 205 260 0 260 0 0 105 0
105 -260 0 -260 0 0 150 0 150 295 0 295 0 0 105 0 105 -420 0 -420 0 0 -565z"/>
<path d="M9070 3425 l0 -105 -65 0 -65 0 0 -95 0 -95 65 0 65 0 0 -203 c0
-224 9 -281 55 -347 30 -43 89 -84 147 -101 61 -18 198 -13 261 11 31 12 57
24 57 26 0 3 -14 41 -31 85 -25 65 -34 79 -47 73 -10 -4 -42 -9 -73 -11 -48
-4 -59 -2 -83 18 -38 33 -45 78 -46 277 l0 172 110 0 110 0 0 95 0 95 -110 0
-110 0 0 105 0 105 -120 0 -120 0 0 -105z"/>
<path d="M7617 3339 c-73 -8 -138 -33 -205 -77 -65 -42 -104 -88 -145 -172
-31 -62 -32 -70 -32 -185 0 -116 1 -123 33 -188 58 -118 168 -203 307 -237 72
-17 233 -15 302 5 69 20 128 53 165 92 l28 29 -64 63 -63 63 -59 -34 c-55 -31
-65 -33 -154 -33 -83 0 -102 3 -145 26 -49 25 -96 79 -110 127 l-6 22 330 0
331 0 0 68 c-1 83 -13 139 -46 207 -79 160 -263 249 -467 224z m161 -194 c47
-20 79 -50 103 -97 36 -71 44 -68 -197 -68 l-216 0 6 28 c11 46 59 104 105
129 53 28 142 31 199 8z"/>
<path d="M8770 3340 c-72 -9 -137 -39 -189 -85 l-41 -37 0 61 0 61 -115 0
-115 0 0 -435 0 -435 119 0 119 0 4 243 c3 202 7 249 21 282 38 84 103 124
205 125 l62 0 0 115 c0 63 -3 114 -7 114 -5 -1 -33 -5 -63 -9z"/>
<path d="M10005 3340 c-85 -9 -142 -24 -209 -55 -84 -39 -82 -33 -37 -124 23
-44 45 -81 49 -81 4 0 16 7 27 16 36 27 144 54 219 54 116 0 181 -45 200 -136
l7 -31 -163 -6 c-241 -9 -336 -46 -390 -150 -45 -88 -19 -221 55 -283 72 -61
190 -89 303 -73 80 11 126 32 171 76 l33 34 0 -56 0 -55 115 0 115 0 0 280 c0
159 -5 300 -11 328 -14 68 -65 149 -117 189 -78 59 -223 88 -367 73z m255
-549 c0 -97 -76 -161 -191 -161 -52 0 -73 5 -100 23 -42 28 -57 74 -39 117 22
54 67 67 223 69 l107 1 0 -49z"/>
<path d="M12065 3339 c-236 -29 -395 -204 -395 -433 0 -151 62 -273 178 -353
150 -102 371 -115 536 -31 52 27 139 110 171 163 72 124 72 316 0 440 -32 53
-119 136 -171 163 -88 45 -210 64 -319 51z m138 -203 c67 -20 102 -50 132
-110 58 -118 22 -268 -79 -330 -41 -26 -58 -30 -115 -30 -118 1 -197 66 -221
181 -29 136 43 265 163 293 49 12 70 11 120 -4z"/>
<path d="M13237 3339 c-69 -10 -135 -38 -188 -80 l-39 -31 0 56 0 56 -115 0
-115 0 0 -435 0 -435 120 0 120 0 0 213 c0 117 5 240 11 273 21 118 89 177
205 177 79 0 120 -23 154 -84 25 -43 25 -48 28 -311 l4 -268 120 0 120 0 -4
308 c-4 336 -5 343 -69 438 -64 95 -205 144 -352 123z"/>
<path d="M14227 3339 c-73 -8 -138 -33 -205 -77 -65 -42 -104 -88 -145 -172
-31 -62 -32 -70 -32 -185 0 -116 1 -123 33 -188 58 -118 168 -203 307 -237 72
-17 233 -15 302 5 69 20 128 53 165 92 l28 29 -64 63 -63 63 -59 -34 c-55 -31
-65 -33 -154 -33 -83 0 -102 3 -145 26 -49 25 -96 79 -110 127 l-6 22 330 0
331 0 0 68 c-1 83 -13 139 -46 207 -79 160 -263 249 -467 224z m161 -194 c47
-20 79 -50 103 -97 36 -71 44 -68 -197 -68 l-216 0 6 28 c11 46 59 104 105
129 53 28 142 31 199 8z"/>
</g>
</svg>
